Coordinates
version=1
nRows=6
nColumns=63
inDegrees=yes

Units are S.I. units (second, meters, Newtons, ...)
If the header above contains a line with 'inDegrees', this indicates whether rotational values are in degrees (yes) or radians (no).

endheader
time	pelvis_tilt	pelvis_list	pelvis_rotation	pelvis_tx	pelvis_ty	pelvis_tz	hip_flexion_r	hip_adduction_r	hip_rotation_r	knee_angle_r	knee_angle_r_beta	ankle_angle_r	subtalar_angle_r	mtp_angle_r	hip_flexion_l	hip_adduction_l	hip_rotation_l	knee_angle_l	knee_angle_l_beta	ankle_angle_l	subtalar_angle_l	mtp_angle_l	L5_S1_Flex_Ext	L5_S1_Lat_Bending	L5_S1_axial_rotation	L4_L5_Flex_Ext	L4_L5_Lat_Bending	L4_L5_axial_rotation	L3_L4_Flex_Ext	L3_L4_Lat_Bending	L3_L4_axial_rotation	L2_L3_Flex_Ext	L2_L3_Lat_Bending	L2_L3_axial_rotation	L1_L2_Flex_Ext	L1_L2_Lat_Bending	L1_L2_axial_rotation	L1_T12_Flex_Ext	L1_T12_Lat_Bending	L1_T12_axial_rotation	Abs_r3	Abs_r2	Abs_r1	Abs_t1	Abs_t2	neck_flexion	neck_bending	neck_rotation	arm_flex_r	arm_add_r	arm_rot_r	elbow_flex_r	pro_sup_r	wrist_flex_r	wrist_dev_r	arm_flex_l	arm_add_l	arm_rot_l	elbow_flex_l	pro_sup_l	wrist_flex_l	wrist_dev_l
      0.03333333	      2.10546176	     -1.92980569	   -180.97659264	      2.49839544	      0.89048887	      0.77859398	     14.37978413	     -3.30938954	     -6.91180687	     27.02474360	      0.47167076	     21.67156831	     -1.83929464	      0.00000000	      6.36752595	     -0.57727859	     -4.53298163	     14.16370857	      0.24720335	     13.42524445	    -18.03733258	      0.00000000	     -0.00053532	     -0.13811166	      0.29097432	     -0.00099414	     -0.18368850	      0.30916021	     -0.00087948	     -0.33580468	      0.30916021	     -0.00061182	     -0.33580468	      0.25460253	     -0.00049710	     -0.28163729	      0.23641663	     -0.00030588	     -0.21393496	      0.21823074	     -0.00382373	     -1.56234669	      1.61831187	      0.00000000	      0.00000000	     -0.00000000	      0.00000000	     -0.00000000	    -14.34719302	      6.04462159	    -33.43433063	     29.28765343	     53.91938448	      0.00000000	      5.75977667	    -13.27660595	     -6.69088543	     36.97390895	     23.86943061	     29.48631256	      0.00000000	      5.75977667
      0.06666667	      2.29213178	     -1.65053910	   -180.18916906	      2.49615593	      0.89206897	      0.77820612	     13.93165028	     -3.14890743	     -8.54498923	     26.30987992	      0.45919403	     22.02108769	     -1.98316622	      0.00000000	      6.41883728	     -0.42854345	     -2.05059254	     13.41617227	      0.23415638	     13.18569732	    -18.11226283	      0.00000000	     -0.00111950	     -0.18798965	     -0.06372413	     -0.00207902	     -0.25002624	     -0.06770689	     -0.00183922	     -0.45707804	     -0.06770689	     -0.00127948	     -0.45707804	     -0.05575862	     -0.00103957	     -0.38334850	     -0.05177586	     -0.00063968	     -0.29119597	     -0.04779310	     -0.00799647	     -2.12657654	     -0.35441452	      0.00000000	      0.00000000	     -0.00000000	      0.00000000	     -0.00000000	    -12.86208301	      1.44683934	    -15.86221432	     24.22582379	     58.64860397	      0.00000000	      5.63320585	    -14.72249754	     -6.06545962	     28.76669658	     25.13259570	     27.43447749	      0.00000000	      5.63320585
      0.10000000	      2.43106864	     -1.49517912	   -180.34211491	      2.49448944	      0.89319326	      0.77719916	     13.84905130	     -2.89345854	     -8.73886612	     26.02812393	      0.45427646	     22.22017295	     -2.36883918	      0.00000000	      6.26715105	     -0.32788067	     -1.12922242	     12.52127198	      0.21853742	     13.04161870	    -17.92909986	      0.00000000	     -0.00233351	     -0.23688125	     -0.21408929	     -0.00433355	     -0.31505206	     -0.22746987	     -0.00383372	     -0.57595307	     -0.22746987	     -0.00266696	     -0.57595307	     -0.18732813	     -0.00216689	     -0.48304825	     -0.17394755	     -0.00133336	     -0.36692906	     -0.16056696	     -0.01666799	     -2.67964809	     -1.19070038	      0.00000000	      0.00000000	     -0.00000000	      0.00000000	     -0.00000000	    -10.59262602	     -3.62082010	     10.50334090	     21.06068990	     66.29724429	      0.00000000	      5.42134327	    -15.89816520	     -5.41954722	     21.89523174	     26.34768735	     26.04586841	      0.00000000	      5.42134327
      0.13333333	      2.51969017	     -1.20598902	   -180.14098555	      2.49354711	      0.89393751	      0.77714190	     13.70557909	     -2.56945567	     -8.92961725	     25.66472375	      0.44793393	     22.15570837	     -2.89293904	      0.00000000	      6.33282222	     -0.43170776	     -0.15165054	     12.12723759	      0.21166023	     13.04432992	    -17.96132264	      0.00000000	     -0.00330706	     -0.24572385	     -0.36530074	     -0.00614154	     -0.32681272	     -0.38813203	     -0.00543317	     -0.59745297	     -0.38813203	     -0.00377964	     -0.59745297	     -0.31963814	     -0.00307094	     -0.50108008	     -0.29680685	     -0.00188965	     -0.38062625	     -0.27397555	     -0.02362200	     -2.77967735	     -2.03169311	      0.00000000	      0.00000000	     -0.00000000	      0.00000000	     -0.00000000	     -8.15329730	     -6.94241631	     32.34533131	     20.40320261	     69.39333085	      0.00000000	      5.23509716	    -16.45038105	     -5.12598853	     18.79219286	     26.97170033	     25.74535091	      0.00000000	      5.23509716
      0.16666667	      2.62922848	     -1.10065352	   -180.22203174	      2.49326704	      0.89421196	      0.77717447	     13.83191462	     -2.47544599	     -8.91742839	     25.60665778	      0.44692049	     22.12694974	     -2.89158960	      0.00000000	      6.49698083	     -0.48681939	     -0.08174187	     11.99203791	      0.20930055	     13.09847399	    -17.92380319	      0.00000000	     -0.00154692	     -0.25559066	     -0.39766668	     -0.00287279	     -0.33993558	     -0.42252085	     -0.00254144	     -0.62144313	     -0.42252085	     -0.00176798	     -0.62144313	     -0.34795834	     -0.00143647	     -0.52120047	     -0.32310418	     -0.00088391	     -0.39590993	     -0.29825001	     -0.01104952	     -2.89129266	     -2.21170277	      0.00000000	      0.00000000	     -0.00000000	      0.00000000	     -0.00000000	     -8.03618048	     -7.12546018	     32.47615994	     20.61037683	     69.40380753	      0.00000000	      5.23414132	    -16.48043123	     -5.24589528	     18.68646927	     26.94163617	     25.72817792	      0.00000000	      5.23414132
      0.20000000	      2.64507501	     -0.83545049	   -179.93333863	      2.49298039	      0.89438502	      0.77815990	     13.72321237	     -2.24947085	     -9.01075617	     25.32468301	      0.44199910	     21.87198830	     -3.25320222	      0.00000000	      6.61444150	     -0.72247513	      0.14930920	     12.03770886	      0.21009765	     13.24072593	    -17.81999301	      0.00000000	     -0.00382744	     -0.24963342	     -0.54293003	     -0.00710794	     -0.33201245	     -0.57686315	     -0.00628810	     -0.60695869	     -0.57686315	     -0.00437438	     -0.60695869	     -0.47506377	     -0.00355416	     -0.50905247	     -0.44113065	     -0.00218700	     -0.38668217	     -0.40719752	     -0.02733902	     -2.82390316	     -3.01961392	      0.00000000	      0.00000000	     -0.00000000	      0.00000000	     -0.00000000	     -5.93099420	     -8.96369408	     48.20712303	     20.79270727	     69.88708911	      0.00000000	      5.13972991	    -17.05348397	     -4.62009443	     15.44782948	     27.16434740	     25.58108496	      0.00000000	      5.13972991
